<svg width="70" height="40" viewBox="0 0 70 40" fill="none" xmlns="http://www.w3.org/2000/svg">
<path d="M48.1106 6.85681C48.2937 7.04558 48.3552 7.32126 48.2696 7.56995C47.942 8.49133 47.6248 9.95208 47.2636 11.8854C46.902 13.8209 46.5866 16.2818 46.5866 19.9821C46.5866 23.6822 46.902 26.1433 47.2636 28.0786C47.6248 30.0121 47.9365 31.4686 48.264 32.39C48.3534 32.639 48.291 32.9173 48.1038 33.1043C47.9166 33.2913 47.6383 33.3535 47.3893 33.2639C46.468 32.9364 45.0164 32.6193 43.0826 32.2581C41.1469 31.8965 38.6852 31.5812 34.9842 31.5812C31.2834 31.5812 28.8218 31.8965 26.886 32.2581C24.9524 32.6193 23.4913 32.9419 22.5697 33.2695C22.3212 33.3554 22.0455 33.294 21.8569 33.1108C21.6749 32.9234 21.6152 32.6489 21.7029 32.4029C22.0305 31.4814 22.3519 30.0194 22.7132 28.0861C23.0749 26.1507 23.3902 23.6895 23.3902 19.9894C23.3902 16.2892 23.0749 13.8282 22.7132 11.8929C22.3519 9.95958 22.0347 8.50292 21.707 7.58147C21.6177 7.33247 21.68 7.05428 21.867 6.86719C22.0541 6.68011 22.3323 6.6177 22.5813 6.70697C23.5029 7.0346 24.9597 7.35181 26.8934 7.71298C28.8292 8.0745 31.2907 8.38972 34.9916 8.38972C38.6927 8.38972 41.1543 8.0745 43.0902 7.71298C45.0238 7.35181 46.4808 7.03044 47.4024 6.70281C47.6486 6.61523 47.9231 6.67492 48.1106 6.85681Z" fill="#6AB023"/>
<path fill-rule="evenodd" clip-rule="evenodd" d="M28.7191 14.2892H29.7222V13.4068C29.7222 13.1836 29.6294 13.0626 29.3972 13.0626H28.3939V13.9454C28.3939 14.1683 28.4871 14.2892 28.7191 14.2892ZM28.7191 20.3282H29.7222V15.4039C29.7222 15.1808 29.6294 15.0601 29.3972 15.0601H28.3939V19.9844C28.3939 20.2071 28.4871 20.3282 28.7191 20.3282ZM32.0821 16.5093V19.3057C32.2915 19.3775 32.5111 19.4152 32.7324 19.4174C33.5778 19.4174 33.9403 18.8881 33.9403 17.7451C33.9403 16.5653 33.643 16.0079 33.0669 16.0079C32.686 16.0079 32.3888 16.2032 32.0821 16.5093ZM30.7537 13.0626V19.8263C30.7537 20.0582 30.8467 20.1143 31.088 20.1886C31.6026 20.3303 32.1339 20.4021 32.6677 20.4022C34.6093 20.4022 35.3432 19.2782 35.3432 17.5316C35.3432 16.0821 34.8972 14.9211 33.4293 14.9211C32.923 14.9333 32.4408 15.1394 32.0821 15.4969V13.4068C32.0821 13.1836 31.9893 13.0626 31.7568 13.0626H30.7537ZM37.4334 20.3282H36.4297C36.1979 20.3282 36.1049 20.2071 36.1049 19.9844V15.0601H37.1079C37.3406 15.0601 37.4334 15.1808 37.4334 15.4039V20.3282ZM36.4297 14.2892H37.4334V13.4068C37.4334 13.1836 37.3406 13.0626 37.1079 13.0626H36.1049V13.9454C36.1049 14.1683 36.1979 14.2892 36.4297 14.2892ZM41.781 18.8139C41.781 19.7984 40.9822 20.4022 39.858 20.4022C39.3989 20.4103 38.9413 20.3476 38.5013 20.2164C38.3615 20.1558 38.2731 20.0157 38.2787 19.8634V19.1945C38.7063 19.3057 39.2637 19.3989 39.626 19.3989C40.2297 19.3989 40.471 19.2223 40.471 18.8881C40.471 18.5406 40.0914 18.3705 39.6442 18.17C39.0031 17.8826 38.223 17.533 38.223 16.5093C38.223 15.6828 38.7806 14.9952 40.0255 14.9952C40.4474 14.9934 40.8671 15.056 41.2702 15.1808C41.4167 15.2349 41.5108 15.3783 41.5021 15.5342V16.2032C41.1017 16.0786 40.686 16.0099 40.2668 15.9988C39.6537 15.9988 39.5238 16.1844 39.5238 16.435C39.5238 16.706 39.8562 16.8512 40.2659 17.03C40.9238 17.3173 41.781 17.6916 41.781 18.8139ZM26.1003 25.6398C26.4064 25.7263 26.7236 25.7672 27.0417 25.7612C27.9546 25.7612 28.3969 25.2478 28.3969 24.5916C28.3969 23.8467 27.8018 23.6104 27.259 23.3948C26.8039 23.214 26.3855 23.0478 26.3855 22.6086C26.3855 22.2595 26.5853 22.0238 27.2128 22.0238C27.5423 22.0254 27.8696 22.0784 28.1829 22.1807V21.9382C28.1829 21.8171 28.1188 21.7599 28.0045 21.7315C27.7205 21.6442 27.4243 21.6032 27.1272 21.6102C26.2856 21.6102 25.8792 22.0595 25.8792 22.6372C25.8792 23.3616 26.458 23.5937 26.9936 23.8085C27.4545 23.9933 27.8834 24.1653 27.8834 24.6273C27.8834 25.1051 27.5838 25.3477 26.9632 25.3477C26.6104 25.3446 26.2598 25.2917 25.9218 25.1905V25.4331C25.9218 25.5544 25.9861 25.6117 26.1003 25.6398ZM30.0664 25.7038C29.9307 25.7038 29.8809 25.6537 29.8809 25.5252V22.0733H28.7039V21.8449C28.7039 21.7165 28.7468 21.6594 28.8751 21.6594H31.5641V21.8879C31.5641 22.0232 31.5143 22.0733 31.3857 22.0733H30.3872V25.7038H30.0664ZM32.3911 25.4331C32.3911 25.5546 32.4554 25.6044 32.5695 25.6398C32.7906 25.7184 33.1545 25.7612 33.5109 25.7612C34.5595 25.7612 34.9446 25.2978 34.9446 24.4417V21.8384C34.9446 21.7099 34.8947 21.6599 34.7592 21.6599H34.438V23.7285C34.1502 23.7941 33.856 23.8276 33.5609 23.8283C32.8691 23.8283 32.598 23.6928 32.598 23.0152V21.8384C32.598 21.7099 32.5481 21.6599 32.4126 21.6599H32.0915V23.0152C32.0915 23.8427 32.3483 24.2491 33.4325 24.2491C33.7728 24.2465 34.112 24.2106 34.4453 24.142V24.5201C34.4453 25.155 34.1528 25.3404 33.4252 25.3404C33.0748 25.3383 32.7264 25.2854 32.3911 25.1833V25.4331ZM37.9973 25.4473C37.9973 25.5758 37.9404 25.6258 37.8191 25.6543C37.518 25.7277 37.2089 25.7636 36.8989 25.7612C35.8792 25.7612 35.7079 25.3547 35.7079 24.5273V21.6599H36.0359C36.1716 21.6599 36.2143 21.7099 36.2143 21.8384V24.5273C36.2143 25.2047 36.4068 25.3404 37.0203 25.3404C37.3509 25.3375 37.6797 25.2896 37.9973 25.1978L37.9973 25.4473ZM40.886 25.6398C40.9888 25.6271 41.0639 25.5365 41.0574 25.4331V25.1833C40.727 25.2857 40.3833 25.3386 40.0374 25.3404C39.1742 25.3404 38.8035 24.8979 38.7891 23.7785H40.9575C41.1856 23.7785 41.2641 23.6999 41.2641 23.4788C41.2641 22.3019 40.7791 21.5532 39.802 21.5532C38.8035 21.5532 38.2399 22.3019 38.2399 23.6857C38.2399 25.1407 38.839 25.7612 39.9517 25.7612C40.2674 25.7672 40.5823 25.7263 40.886 25.6398ZM38.7891 23.3789H40.7577C40.7577 22.4803 40.4367 21.9454 39.802 21.9454C39.21 21.9454 38.8462 22.359 38.7891 23.3789ZM41.9989 25.6398C42.3051 25.7263 42.6223 25.7672 42.9404 25.7612C43.8533 25.7612 44.2956 25.2478 44.2956 24.5916C44.2956 23.8467 43.7005 23.6104 43.1577 23.3948C42.7026 23.214 42.2842 23.0478 42.2842 22.6086C42.2842 22.2595 42.4838 22.0238 43.1116 22.0238C43.4411 22.0254 43.7683 22.0784 44.0815 22.1807V21.9382C44.0815 21.8171 44.0173 21.7599 43.9033 21.7315C43.6193 21.6442 43.3231 21.6032 43.026 21.6102C42.1843 21.6102 41.7777 22.0595 41.7777 22.6372C41.7777 23.3616 42.3566 23.5937 42.8921 23.8085C43.3531 23.9933 43.782 24.1653 43.782 24.6273C43.782 25.1051 43.4824 25.3477 42.8619 25.3477C42.5091 25.3446 42.1586 25.2917 41.8206 25.1905V25.4331C41.8206 25.5544 41.8847 25.6117 41.9989 25.6398Z" fill="white"/>
</svg>
